# xmcd
#
# Track frame offsets: 
#        150
#        17674
#        35705
#        52955
#        66540
#        85288
#        103553
#        121318
#        135499
#        148106
#        161793
#        176870
#        192183
#        204234
#        222107
#        235070
#        252841
#        266930
#        285695
#        304325
#        318573
#        331475
#
# Disc length: 4604 seconds
#
# Revision: 1
# Processed by: cddbd v1.5.2PL0 Copyright (c) Steve Scherf et al.
# Submitted via: ExactAudioCopy v1.0b3
#
DISCID=5311fa16
DTITLE=Anne Murray - Country Croonin'
DYEAR=2002
DGENRE=Country
TTITLE0=Help Me Make It Through The Night
TTITLE1=Someday (You'll Want Me To Want You)
TTITLE2=End Of The World
TTITLE3=Oh Lonesome Me
TTITLE4=I Can't Stop Loving You
TTITLE5=Me And Bobby McGee
TTITLE6=Can't Help Falling In Love With You
TTITLE7=Let It Be Me
TTITLE8=Singing The Blues
TTITLE9=A Fool Such As I (Now And Then)
TTITLE10=Are You Lonesome Tonight
TTITLE11=Make The World Go Away
TTITLE12=Anytime
TTITLE13=You Don't Know Me
TTITLE14=Bye Bye Love
TTITLE15=Always On My Mind
TTITLE16=Take These Chains From My Heart
TTITLE17=For The Good Times
TTITLE18=She'll Have To Go
TTITLE19=I Fall To Pieces
TTITLE20=All I Have To Do Is Dream
TTITLE21=Tennessee Waltz
EXTD=ID3G: 2
EXTT0=
EXTT1=
EXTT2=
EXTT3=
EXTT4=
EXTT5=
EXTT6=
EXTT7=
EXTT8=
EXTT9=
EXTT10=
EXTT11=
EXTT12=
EXTT13=
EXTT14=
EXTT15=
EXTT16=
EXTT17=
EXTT18=
EXTT19=
EXTT20=
EXTT21=
PLAYORDER=
